<?xml version="1.0" encoding="UTF-8"?>
<svg version="1.1" xmlns="http://www.w3.org/2000/svg" width="106" height="92">
<path d="M0 0 C9.6690764 9.6690764 14.95396925 20.77081985 15 34.375 C14.97020744 47.39175891 11.62583756 57.2490863 2.64453125 67.046875 C-8.09364008 77.15786111 -19.91337947 80.37149886 -34.34375 79.99609375 C-44.64745669 79.34696023 -53.21702805 75.0966576 -61 68.375 C-61.7425 67.50875 -62.485 66.6425 -63.25 65.75 C-63.72953125 65.19957031 -64.2090625 64.64914063 -64.703125 64.08203125 C-72.45888719 54.58318109 -75.67625128 43.95144283 -75.25 31.75 C-73.89526718 18.823591 -68.87810841 7.79519022 -58.69921875 -0.5 C-39.73607415 -14.0494239 -18.90405787 -13.08742468 0 0 Z M-46.625 21.125 C-50.81668151 26.48989672 -52.06838748 31.97850356 -51.25 38.75 C-49.42411365 44.76468444 -46.23611204 49.83484864 -41.25 53.75 C-35.45870168 56.27971548 -29.25224376 57.76534995 -23.125 55.671875 C-16.82893218 52.57630832 -11.67384125 48.48442256 -9.25 41.75 C-7.51845504 35.1965833 -8.38823442 29.84164209 -11.25 23.75 C-14.51390663 18.50443577 -18.84576027 16.45211986 -24.25 13.75 C-33.49440409 12.80065884 -40.23720322 14.18308109 -46.625 21.125 Z " fill="#233DF9" transform="translate(82.25,12.25)"/>
<path d="M0 0 C0.33 0 0.66 0 1 0 C1.4281343 14.55656605 0.99294574 24.95119891 -8 37 C-8.99 36.01 -9.98 35.02 -11 34 C-7.25 31 -7.25 31 -5 31 C-5.99 28.03 -6.98 25.06 -8 22 C-7.34 21.34 -6.68 20.68 -6 20 C-6 20.99 -6 21.98 -6 23 C-5.34 23 -4.68 23 -4 23 C-4 22.34 -4 21.68 -4 21 C-3.34 21 -2.68 21 -2 21 C-1.01 10.605 -1.01 10.605 0 0 Z " fill="#2E46DD" transform="translate(96,38)"/>
<path d="M0 0 C1.9375 0.1875 1.9375 0.1875 4 1 C4.6837045 2.32467746 5.34964186 3.65863633 6 5 C8.0335948 6.26804566 8.0335948 6.26804566 10 7 C10 7.99 10 8.98 10 10 C8.35 9.67 6.7 9.34 5 9 C5 8.34 5 7.68 5 7 C2.69 6.67 0.38 6.34 -2 6 C-1.125 1.125 -1.125 1.125 0 0 Z " fill="#243CDA" transform="translate(50,34)"/>
<path d="M0 0 C0.99 0 1.98 0 3 0 C4 1 5 2 6 3 C8.10332891 3.71447643 8.10332891 3.71447643 10 4 C11.125 7.75 11.125 7.75 10 10 C8.35 9.67 6.7 9.34 5 9 C4.938125 8.38125 4.87625 7.7625 4.8125 7.125 C4.171081 4.72238859 4.171081 4.72238859 1.4375 3.75 C0.633125 3.5025 -0.17125 3.255 -1 3 C-0.67 2.01 -0.34 1.02 0 0 Z " fill="#273FC0" transform="translate(51,42)"/>
<path d="M0 0 C1.98 0.495 1.98 0.495 4 1 C4 1.66 4 2.32 4 3 C6.31 3.66 8.62 4.32 11 5 C10.67 6.65 10.34 8.3 10 10 C8.35 9.67 6.7 9.34 5 9 C4.938125 8.38125 4.87625 7.7625 4.8125 7.125 C4.171081 4.72238859 4.171081 4.72238859 1.4375 3.75 C0.633125 3.5025 -0.17125 3.255 -1 3 C-0.67 2.01 -0.34 1.02 0 0 Z " fill="#2A3EDC" transform="translate(45,50)"/>
<path d="M0 0 C2.0625 0.75 2.0625 0.75 4 2 C4.33 2.99 4.66 3.98 5 5 C7.00016466 6.20882096 7.00016466 6.20882096 9 7 C8.67 8.32 8.34 9.64 8 11 C7.01 10.67 6.02 10.34 5 10 C4.67 9.34 4.34 8.68 4 8 C3.01 7.67 2.02 7.34 1 7 C0.01 6.67 -0.98 6.34 -2 6 C-2.33 5.34 -2.66 4.68 -3 4 C-2.67 3.01 -2.34 2.02 -2 1 C-1.34 0.67 -0.68 0.34 0 0 Z " fill="#273BCA" transform="translate(45,42)"/>
<path d="M0 0 C14.59183749 -0.92223692 14.59183749 -0.92223692 20.578125 3.5546875 C22.49204915 5.50015985 23.39441249 7.35055463 24 10 C24.66 10 25.32 10 26 10 C26 11.65 26 13.3 26 15 C25.443125 14.278125 24.88625 13.55625 24.3125 12.8125 C19.70653978 7.21065649 15.6495504 2.66146919 8.171875 1.59765625 C5.44801458 1.34273085 2.73193149 1.14097155 0 1 C0 0.67 0 0.34 0 0 Z " fill="#3348D3" transform="translate(47,25)"/>
<path d="M0 0 C0 0.99 0 1.98 0 3 C-1.98 3.33 -3.96 3.66 -6 4 C-6 4.66 -6 5.32 -6 6 C-9.63 5.67 -13.26 5.34 -17 5 C-17 4.34 -17 3.68 -17 3 C-18.65 2.67 -20.3 2.34 -22 2 C-18.70056314 0.90018771 -18.00384212 1.11921835 -14.8125 2.0625 C-9.32528309 3.4074061 -5.08995744 2.54497872 0 0 Z " fill="#374ADB" transform="translate(63,65)"/>
<path d="M0 0 C1.32 0.99 2.64 1.98 4 3 C3.19197985 10.45308142 2.56153959 15.73117302 -3 21 C-3 18.03469732 -2.54850771 16.58364492 -1.5 13.875 C0.17929151 9.0736454 0.24090067 5.05891411 0 0 Z " fill="#3A4BD9" transform="translate(73,40)"/>
<path d="M0 0 C0.66 0.33 1.32 0.66 2 1 C-6 13 -6 13 -8.125 13.6875 C-8.74375 13.790625 -9.3625 13.89375 -10 14 C-8.62815653 9.93501119 -6.77931541 7.32603439 -3.875 4.1875 C-3.15054687 3.39730469 -2.42609375 2.60710938 -1.6796875 1.79296875 C-1.12539063 1.20128906 -0.57109375 0.60960937 0 0 Z " fill="#2A40D3" transform="translate(23,12)"/>
<path d="M0 0 C4.12172083 3.76843047 7.63068221 7.88904305 10 13 C9.67 13.66 9.34 14.32 9 15 C6.20127563 12.47211993 4.54226981 10.79588866 4 7 C3.67 7.66 3.34 8.32 3 9 C2.34 9 1.68 9 1 9 C0.67 6.03 0.34 3.06 0 0 Z " fill="#293FDF" transform="translate(83,14)"/>
<path d="M0 0 C2 4.75 2 4.75 2 7 C2.66 7.33 3.32 7.66 4 8 C3.67 8.66 3.34 9.32 3 10 C-4.66742597 4.9977221 -4.66742597 4.9977221 -6 1 C-3.92446352 0.4465236 -2.15634036 0 0 0 Z " fill="#243DE3" transform="translate(24,75)"/>
<path d="M0 0 C0.33 0 0.66 0 1 0 C1.19335563 5.51063545 0.70215337 9.69328656 -1 15 C-1.35371498 16.66246041 -1.69595322 18.32774271 -2 20 C-2.33 20 -2.66 20 -3 20 C-2.22095672 6.3667426 -2.22095672 6.3667426 0 0 Z " fill="#2A45C1" transform="translate(10,30)"/>
<path d="M0 0 C3 1.8125 3 1.8125 6 4 C6 4.99 6 5.98 6 7 C4.35 6.67 2.7 6.34 1 6 C1 5.34 1 4.68 1 4 C-0.65 4 -2.3 4 -4 4 C-2.68 3.67 -1.36 3.34 0 3 C0 2.01 0 1.02 0 0 Z " fill="#283EC4" transform="translate(54,37)"/>
<path d="M0 0 C1.98 0.495 1.98 0.495 4 1 C4 1.66 4 2.32 4 3 C4.66 3.33 5.32 3.66 6 4 C5.01 5.485 5.01 5.485 4 7 C4 6.34 4 5.68 4 5 C1.525 4.01 1.525 4.01 -1 3 C-0.67 2.01 -0.34 1.02 0 0 Z " fill="#283DC3" transform="translate(45,50)"/>
<path d="M0 0 C1.32 0.33 2.64 0.66 4 1 C2.63016497 4.16115776 2.0109362 4.9927092 -1 7 C-1.625 5.1875 -1.625 5.1875 -2 3 C-1.34 2.01 -0.68 1.02 0 0 Z " fill="#283EE7" transform="translate(83,74)"/>
<path d="M0 0 C2.93200474 2.85276137 5.64315404 5.65079784 8 9 C7.401875 8.690625 6.80375 8.38125 6.1875 8.0625 C3.91043228 6.89790296 3.91043228 6.89790296 1 6 C0.67 4.02 0.34 2.04 0 0 Z " fill="#364CDC" transform="translate(33,57)"/>
<path d="M0 0 C0.33 0 0.66 0 1 0 C1.33 3.96 1.66 7.92 2 12 C0.68 12 -0.64 12 -2 12 C-1.34 8.04 -0.68 4.08 0 0 Z " fill="#344BE0" transform="translate(30,43)"/>
<path d="M0 0 C2.475 0.495 2.475 0.495 5 1 C5 2.32 5 3.64 5 5 C3.68 5 2.36 5 1 5 C0.67 3.35 0.34 1.7 0 0 Z " fill="#263EE5" transform="translate(56,47)"/>
<path d="M0 0 C0.66 0.33 1.32 0.66 2 1 C1.071875 1.763125 0.14375 2.52625 -0.8125 3.3125 C-2.98276101 5.11848552 -5.05568065 6.9476629 -7 9 C-6.875 6.1875 -6.875 6.1875 -6 3 C-3.0625 1.0625 -3.0625 1.0625 0 0 Z " fill="#3645D6" transform="translate(40,28)"/>
<path d="M0 0 C0.33 1.32 0.66 2.64 1 4 C-3.75 5.125 -3.75 5.125 -6 4 C-4.02 2.68 -2.04 1.36 0 0 Z " fill="#293ED5" transform="translate(31,7)"/>
</svg>
